<?xml version="1.0" encoding="utf-8"?>
<!-- Generator: Adobe Illustrator 22.0.1, SVG Export Plug-In . SVG Version: 6.00 Build 0)  -->
<svg version="1.1" id="Layer_1" xmlns="http://www.w3.org/2000/svg" xmlns:xlink="http://www.w3.org/1999/xlink" x="0px" y="0px"
	 viewBox="0 0 83.3 91.9" style="enable-background:new 0 0 83.3 91.9;" xml:space="preserve">
<style type="text/css">
	.st0{opacity:0.49;fill:#EE7423;enable-background:new    ;}
	.st1{fill:#EE7423;}
	.st2{opacity:0.49;fill:#FFFFFF;enable-background:new    ;}
	.st3{fill:#F1F2F2;}
	.st4{fill:#FFFFFF;}
	.st5{opacity:0.29;fill:#FFFFFF;enable-background:new    ;}
</style>
<g>
	<g>
		<g>
			<polygon class="st0" points="33.6,5.3 47.1,21.9 73,21.9 73,5.3 			"/>
			<path class="st1" d="M73,5.3H62.7H52.4C56,6.5,62.7,8.1,62.7,15.6c0,11.8,0,42.3,0,42.3L52,45L39,55.4l23.7,29.2v0.1h16.6V11.6
				C79.4,8.1,76.5,5.3,73,5.3L73,5.3z"/>
			<polygon class="st2" points="48.7,84.8 35.3,68.1 9.3,68.1 9.3,84.8 			"/>
			<path class="st3" d="M9.3,84.8h10.3h10.3c-3.6-1.2-10.3-2.8-10.3-10.3c0-11.8,0-42.3,0-42.3l12,14.4l13-10.4l-25-30.7V5.3H3v73.1
				C3,81.9,5.8,84.8,9.3,84.8L9.3,84.8z"/>
			<path class="st4" d="M19.7,84.8C16,83.5,9.4,81.9,9.4,74.4V60.8l0,0V5.3H3v73.1c0,3.5,2.8,6.3,6.2,6.3l0,0H19.7z"/>
			<path class="st5" d="M62.7,5.3C66.3,6.5,73,8.1,73,15.6v13.7l0,0v55.5h6.3V11.6c0-3.5-2.8-6.3-6.2-6.3l0,0H62.7z"/>
		</g>
	</g>
</g>
</svg>
