<?xml version="1.0" encoding="utf-8"?>
<!-- Generator: Adobe Illustrator 22.0.1, SVG Export Plug-In . SVG Version: 6.00 Build 0)  -->
<svg version="1.1" id="Layer_1" xmlns="http://www.w3.org/2000/svg" xmlns:xlink="http://www.w3.org/1999/xlink" x="0px" y="0px"
	 viewBox="0 0 377.3 91.9" style="enable-background:new 0 0 377.3 91.9;" xml:space="preserve">
<style type="text/css">
	.st0{opacity:0.49;fill:#EE7423;enable-background:new    ;}
	.st1{fill:#EE7423;}
	.st2{opacity:0.49;fill:#FFFFFF;enable-background:new    ;}
	.st3{fill:#F1F2F2;}
	.st4{fill:#FFFFFF;}
	.st5{opacity:0.29;fill:#FFFFFF;enable-background:new    ;}
</style>
<g>
	<g>
		<g>
			<polygon class="st0" points="33.6,5.3 47.1,21.9 73,21.9 73,5.3 			"/>
			<path class="st1" d="M73,5.3H62.7H52.4C56,6.5,62.7,8.1,62.7,15.6c0,11.8,0,42.3,0,42.3L52,45L39,55.4l23.7,29.2v0.1h16.6V11.6
				C79.4,8.1,76.5,5.3,73,5.3L73,5.3z"/>
			<polygon class="st2" points="48.7,84.8 35.3,68.1 9.3,68.1 9.3,84.8 			"/>
			<path class="st3" d="M9.3,84.8h10.3h10.3c-3.6-1.2-10.3-2.8-10.3-10.3c0-11.8,0-42.3,0-42.3l12,14.4l13-10.4l-25-30.7V5.3H3v73.1
				C3,81.9,5.8,84.8,9.3,84.8L9.3,84.8z"/>
			<path class="st4" d="M19.7,84.8C16,83.5,9.4,81.9,9.4,74.4V60.8l0,0V5.3H3v73.1c0,3.5,2.8,6.3,6.2,6.3l0,0H19.7z"/>
			<path class="st5" d="M62.7,5.3C66.3,6.5,73,8.1,73,15.6v13.7l0,0v55.5h6.3V11.6c0-3.5-2.8-6.3-6.2-6.3l0,0H62.7z"/>
		</g>
		<path class="st3" d="M110.7,85.8h-15V46h-6.4V34.4h21.4V85.8z M102.4,30.3c-5.1,0-9.3-4.3-9.3-9.4c0-5,4.3-9.3,9.3-9.3
			c5.1,0,9.4,4.1,9.4,9.3S107.5,30.3,102.4,30.3z"/>
		<path class="st3" d="M164.3,85.8h-41.7v-8.7L143.9,46h-9.3V52H123V34.4h40.2v7.7L142,74.4h22.4L164.3,85.8L164.3,85.8z"/>
		<path class="st3" d="M219.7,86.3c-1.4,0.3-2.8,0.4-4.3,0.4c-10.1,0-15.1-6.5-15.1-16.4v-7.9c-3.9,1.2-13.6,2.4-13.6,7.9
			c0,3.8,3.3,5,6.7,5c1.7,0,3.2-0.3,4.9-0.8v11.8c-1.6,0.5-4,0.7-6.3,0.7c-10.6,0-20.8-4-20.8-16.2s11.7-15.3,21.7-17.4
			c3.5-0.8,8.3-1.6,8.3-5.2c0-3.3-4.8-3.8-7.2-3.8c-5.8,0-11.5,2-16.7,4.5V36.3c5.5-2.1,11.1-3.3,17-3.3c6.8,0,14.7,1.5,18.8,7.6
			c2.3,3.5,2.3,7.7,2.3,11.8v17c0,3.9,0.9,5.9,4.9,5.9c0.8,0,1.5,0,2.3-0.2L219.7,86.3z"/>
		<path class="st3" d="M259.8,45.9h-14.2v21.5c0,4.8,1.3,7.6,6.4,7.6c2.5,0,5-0.7,7.3-1.4v11.5c-2.9,1.2-6.9,1.6-10,1.6
			c-12.1,0-18.6-6.3-18.6-18.8v-22h-6.5v-9.6l6.8-1.6V23h14.6v11.3h14.2V45.9z"/>
		<path class="st3" d="M302.7,45.9h-14.2v21.5c0,4.8,1.3,7.6,6.4,7.6c2.5,0,5-0.7,7.3-1.4v11.5c-2.9,1.2-6.9,1.6-10,1.6
			c-12.1,0-18.6-6.3-18.6-18.8v-22h-6.5v-9.6l6.8-1.6V23h14.6v11.3h14.2L302.7,45.9L302.7,45.9z"/>
		<path class="st3" d="M339.7,87.5c-15.6,0-28.7-11.3-28.7-27.3s13.1-27.5,28.7-27.5c15.5,0,28.6,11.5,28.6,27.5
			C368.3,76.4,355.2,87.5,339.7,87.5z M339.7,45.8c-8.1,0-12.7,6.8-12.7,14.2c0,7.5,4.7,14.3,12.7,14.3s12.5-6.8,12.5-14.3
			C352.2,52.6,347.7,45.8,339.7,45.8z"/>
	</g>
</g>
</svg>
